<svg width="112" height="30" viewBox="0 0 112 30" fill="none" xmlns="http://www.w3.org/2000/svg">
<path d="M112 0.133301H82.7069V29.8767H112V0.133301Z" fill="#AA182C"/>
<path d="M15.3263 23.3888C15.3263 23.3579 15.3161 23.6154 15.2755 24.1303C15.2045 25.1911 15.1639 26.2313 15.1639 27.2097C15.1639 27.323 15.1843 27.5495 15.2147 27.8997C15.2553 28.2395 15.2755 28.6413 15.2755 29.1253V29.3724C15.2755 29.6094 15.2045 29.7227 15.0625 29.7227C14.9205 29.7227 14.7886 29.5887 14.677 29.3107C14.4133 28.7031 14.1598 28.3117 13.9264 28.116C12.6181 29.2695 11.0458 29.8566 9.22008 29.8566C6.56259 29.8566 4.36154 28.909 2.60678 27.0346C0.872306 25.1705 0 22.7914 0 19.9283C0 17.0446 0.791161 14.6758 2.39377 12.8426C3.99638 11.0197 6.05543 10.1031 8.59121 10.1031C9.51422 10.1031 10.2547 10.1855 10.8024 10.34C11.3602 10.4944 12.0398 10.8137 12.8513 11.2874C13.2469 11.5243 13.5511 11.648 13.754 11.648C13.9164 11.648 14.0786 11.5037 14.2105 11.2154C14.4539 10.7004 14.6264 10.4327 14.7886 10.4327C14.9306 10.4327 15.0016 10.5047 15.0016 10.649C15.0016 10.7313 14.9814 10.8446 14.9408 11.0197C14.738 11.8951 14.6466 13.5532 14.6466 15.9735C14.6466 16.3237 14.6162 16.5297 14.5553 16.5811C14.5047 16.643 14.4235 16.6636 14.3423 16.6636C14.1598 16.6636 14.0482 16.4781 13.9874 16.1383C13.7439 14.6655 13.4091 13.5739 12.973 12.8529C12.0906 11.3802 10.701 10.649 8.80421 10.649C7.3436 10.649 6.17714 11.1536 5.33527 12.1526C3.80366 13.9343 3.04293 16.54 3.04293 19.9695C3.04293 23.0386 3.6718 25.428 4.93969 27.1171C6.03514 28.5898 7.50589 29.3313 9.33165 29.3313C10.2648 29.3313 11.1168 29.0841 11.908 28.6207C12.6891 28.1572 13.2875 27.5289 13.6932 26.7153C14.1598 25.7782 14.4945 24.7586 14.6974 23.6566C14.7684 23.2137 14.89 22.9871 15.0524 22.9871C15.2247 22.9768 15.3263 23.121 15.3263 23.3888Z" fill="#1E1D1C"/>
<path d="M28.1673 28.2909C28.1673 28.6102 27.863 28.9396 27.2139 29.2692C26.5749 29.6091 25.9562 29.7842 25.3679 29.7842C24.1202 29.7945 23.4711 29.1251 23.4305 27.8171C22.7407 29.1869 21.6859 29.8666 20.2355 29.8666C19.4645 29.8666 18.8356 29.6194 18.3184 29.1559C17.8214 28.6925 17.5677 28.0952 17.5677 27.3639C17.5677 25.85 18.4503 24.645 20.2253 23.7696C20.8237 23.4709 21.8887 23.1722 23.3899 22.8839V22.2042C23.3899 20.5872 23.3088 19.5161 23.1465 19.0011C22.8625 18.064 22.2032 17.5902 21.199 17.5902C20.56 17.5902 20.0326 17.7653 19.6167 18.1155C19.1907 18.4657 18.9776 18.9085 18.9776 19.444C18.9776 19.5883 19.0994 19.6603 19.3225 19.6603C19.5558 19.6603 19.7587 19.7633 19.9413 19.9899C20.1137 20.2164 20.2151 20.4636 20.2151 20.7417C20.2151 21.5553 19.8196 21.957 19.0182 21.957C18.5923 21.957 18.2474 21.8128 17.9836 21.5347C17.7098 21.2463 17.5779 20.8859 17.5779 20.443C17.5779 19.578 17.9126 18.8261 18.5821 18.2081C19.3225 17.5284 20.3571 17.1885 21.6758 17.1885C23.6637 17.1885 24.881 17.7447 25.3374 18.8364C25.4997 19.269 25.5809 20.0929 25.5809 21.3493V26.4989C25.5809 27.333 25.591 27.8377 25.6011 27.9819C25.7026 28.641 25.9662 28.9809 26.3923 28.9809C26.9096 28.9809 27.3153 28.7955 27.6398 28.4248C27.8225 28.2188 27.9645 28.126 28.0457 28.126C28.1369 28.126 28.1673 28.1879 28.1673 28.2909ZM23.3899 25.3763V23.3679C22.0612 23.6872 21.0875 24.0992 20.5296 24.5935C19.9413 25.1085 19.6471 25.7779 19.6471 26.6327C19.6471 27.2095 19.8196 27.6832 20.1441 28.0746C20.4788 28.4556 20.8846 28.6513 21.3918 28.6513C22.1525 28.6513 22.7712 28.1982 23.2378 27.3227C23.3392 27.1065 23.3899 26.4576 23.3899 25.3763Z" fill="#1E1D1C"/>
<path d="M36.4441 26.0346C36.4441 27.1058 36.0586 28.0018 35.2878 28.7432C34.527 29.4848 33.6142 29.8658 32.5593 29.8658C31.9406 29.8658 31.2001 29.6496 30.3177 29.2067C30.0844 29.0831 29.8714 29.0111 29.6888 29.0111C29.4453 29.0111 29.2526 29.1861 29.131 29.5363C29.0599 29.7525 28.9585 29.8658 28.8266 29.8658C28.7049 29.8658 28.6542 29.7937 28.6542 29.6496C28.6542 29.5568 28.6542 29.4538 28.6542 29.32C28.6542 28.9492 28.6542 28.4034 28.6542 27.6825C28.6542 27.6309 28.6542 27.4044 28.6542 27.0336C28.6542 26.6423 28.6542 26.3848 28.6542 26.2612V25.9522C28.6542 25.7566 28.7049 25.6536 28.8266 25.6536C28.9788 25.6536 29.0599 25.7463 29.07 25.9522C29.1816 26.7968 29.4149 27.4662 29.7902 27.9399C30.5103 28.8978 31.474 29.3612 32.7013 29.3612C33.3504 29.3612 33.8779 29.1655 34.2734 28.7948C34.6691 28.4034 34.8719 27.8781 34.8719 27.2499C34.8719 26.529 34.6386 25.9626 34.1822 25.53C33.9387 25.2931 33.7054 25.118 33.4924 25.0253C33.2896 24.9223 32.681 24.6854 31.6566 24.2941C29.6482 23.5217 28.6339 22.3579 28.6339 20.8233C28.6339 19.7935 28.9788 18.9283 29.6583 18.228C30.3379 17.5277 31.1798 17.1878 32.1839 17.1878C32.5492 17.1878 33.0867 17.2908 33.8069 17.5174C33.9793 17.5791 34.1416 17.5997 34.2836 17.5997C34.6691 17.5997 34.8922 17.4144 34.9936 17.054C35.0545 16.8685 35.1255 16.7758 35.227 16.7758C35.3588 16.7758 35.4196 16.848 35.4196 16.9921C35.4196 17.0127 35.4196 17.0642 35.4196 17.1466V18.3104C35.4095 18.743 35.4501 19.4536 35.5515 20.4216V20.4835C35.5515 20.6276 35.4805 20.6998 35.3385 20.6998C35.227 20.6998 35.095 20.4216 34.9327 19.8759C34.7299 19.2167 34.385 18.6812 33.8881 18.2796C33.3809 17.8778 32.8128 17.6718 32.1637 17.6718C31.5348 17.6718 31.048 17.8676 30.6422 18.2589C30.2467 18.6503 30.0438 19.1343 30.0438 19.7213C30.0438 20.6276 30.6524 21.3383 31.8594 21.8121C33.746 22.5638 34.9429 23.1921 35.4602 23.6864C36.1094 24.325 36.4441 25.1077 36.4441 26.0346Z" fill="#1E1D1C"/>
<path d="M45.3699 27.9092C45.3699 28.074 45.1367 28.3623 44.6904 28.7949C43.9094 29.5055 42.9863 29.866 41.9213 29.866C40.9171 29.866 40.1665 29.6085 39.6594 29.0936C39.3754 28.8052 39.2333 27.9401 39.2333 26.5188V18.3414C39.2029 18.1561 39.1117 18.0634 38.9291 18.0325H37.9046C37.5091 18.0325 37.3062 17.9809 37.3062 17.8471C37.3062 17.7235 37.3975 17.6411 37.6003 17.6205C39.0001 17.4866 40.0955 16.7863 40.8867 15.4783C40.9983 15.3136 41.1301 15.2209 41.2924 15.2209C41.4142 15.2209 41.4852 15.2826 41.4852 15.4166V15.5299C41.4852 15.6122 41.4852 15.777 41.4852 16.0036C41.4852 16.776 41.5156 17.2703 41.5967 17.4866C41.759 17.5278 42.0227 17.5484 42.4082 17.5484C43.4022 17.5484 44.0614 17.4969 44.3861 17.4145C44.4571 17.4042 44.5179 17.3939 44.5788 17.3939C44.7208 17.3939 44.7918 17.4763 44.7918 17.6308C44.7918 17.9089 44.0514 18.0428 42.5907 18.0428C42.3372 18.0428 41.9619 18.0428 41.475 18.0428V23.1305C41.4852 25.6949 41.546 27.2913 41.6677 27.9504C41.7995 28.6095 42.2154 28.9288 42.9153 28.9288C43.5137 28.9288 44.173 28.5889 44.9135 27.9092C44.9845 27.8062 45.0758 27.7753 45.1569 27.7753C45.3091 27.765 45.3699 27.8062 45.3699 27.9092Z" fill="#1E1D1C"/>
<path d="M51.4052 29.3516C51.4052 29.5268 51.253 29.6092 50.9487 29.6092C50.9589 29.6092 50.7459 29.5989 50.2894 29.5576C49.7519 29.5268 49.2954 29.4959 48.9404 29.4959H46.1104C46.0192 29.5679 45.9076 29.6092 45.7859 29.6092C45.5831 29.6092 45.4917 29.5473 45.4917 29.4032C45.4917 29.2075 45.6642 29.1148 46.0294 29.1148C46.7089 29.0839 47.0842 29.0427 47.1552 28.95C47.2161 28.8676 47.2465 28.4866 47.2465 27.8069V19.4647C47.2363 19.0115 47.2059 18.7334 47.1755 18.6511C47.1552 18.5584 47.0436 18.5275 46.8408 18.5275H46.0496C45.9786 18.5275 45.8874 18.5275 45.7758 18.5275C45.5729 18.5275 45.4816 18.4657 45.4816 18.3318C45.4816 18.2185 45.6337 18.1464 45.938 18.1361C47.1349 18.0846 48.1493 17.7859 49.0114 17.2504L49.2751 17.0753C49.4172 17.3534 49.4882 17.8684 49.4882 18.5892C49.478 18.5481 49.478 18.6511 49.4882 18.857C49.4882 19.0837 49.4882 19.4441 49.4882 19.9384V27.4567C49.4882 28.1982 49.5186 28.6307 49.5388 28.7646C49.5592 28.8882 49.6606 28.9706 49.8229 29.0015C50.1069 29.0736 50.5024 29.1148 51.0096 29.1148C51.2734 29.1355 51.4052 29.2178 51.4052 29.3516ZM49.4882 14.9434C49.4882 15.9733 48.9911 16.4779 47.987 16.4779C47.5711 16.4779 47.2161 16.3338 46.922 16.0557C46.6379 15.7776 46.4959 15.4275 46.4959 15.0259C46.4959 13.965 46.993 13.4294 47.987 13.4294C48.9911 13.4294 49.4882 13.9341 49.4882 14.9434Z" fill="#1E1D1C"/>
<path d="M57.8056 29.3311C57.8056 29.4959 57.6839 29.5782 57.4607 29.5782H57.1362C57.0956 29.5782 56.6189 29.5576 55.6959 29.5268H54.8539C54.7119 29.5268 53.9817 29.5371 52.6934 29.5576C52.5819 29.5782 52.4703 29.5782 52.3689 29.5782C52.0951 29.5885 51.953 29.5165 51.953 29.3414C51.953 29.2178 52.0646 29.156 52.2573 29.156H52.9673C53.4644 29.156 53.7179 29.053 53.7179 28.8265C53.7382 28.7235 53.7484 28.0025 53.7484 26.6843L53.7281 12.657C53.7281 12.0494 53.7179 11.7198 53.6875 11.6581C53.6266 11.5138 53.4846 11.4418 53.2513 11.4418H53.0383H52.2675C52.0139 11.4418 51.9023 11.3594 51.9023 11.2152C51.9023 11.0709 52.1255 10.9886 52.5718 10.968C53.434 10.9062 54.2352 10.7105 54.9757 10.3603L55.5437 10.0926L55.7567 10.0102C55.9088 10.5458 55.9596 11.3491 55.9494 12.4304V14.3873V27.8789C55.9494 28.4453 55.9596 28.7749 55.9798 28.8676C56.0001 28.9706 56.061 29.0427 56.1726 29.0736C56.1827 29.0839 56.5175 29.1148 57.1768 29.1354C57.6027 29.1354 57.8056 29.2075 57.8056 29.3311Z" fill="#1E1D1C"/>
<path d="M64.1856 29.3307C64.1856 29.4955 64.0639 29.5778 63.8205 29.5778H63.5061C63.4655 29.5778 62.9887 29.5572 62.0657 29.5264H61.2238C61.0819 29.5264 60.3617 29.5367 59.0532 29.5572C58.9518 29.5778 58.8402 29.5778 58.7286 29.5778C58.4548 29.5881 58.3229 29.5161 58.3229 29.341C58.3229 29.2174 58.4243 29.1556 58.6272 29.1556H59.3271C59.8342 29.1556 60.0879 29.0526 60.0879 28.8261C60.1081 28.7231 60.1081 28.0021 60.1081 26.6736V12.6463C60.1081 12.0387 60.0979 11.7091 60.0573 11.6474C59.9965 11.5031 59.8647 11.4311 59.6314 11.4311H59.4082H58.6475C58.3939 11.4311 58.2621 11.3487 58.2621 11.2045C58.2621 11.0603 58.4953 10.9779 58.9315 10.9573C59.814 10.8955 60.6051 10.6998 61.3456 10.3497L61.9237 10.0819L62.1367 9.99951C62.2788 10.5351 62.3498 11.3384 62.3294 12.4197V14.3766V27.8785C62.3294 28.4449 62.3396 28.7745 62.3498 28.8672C62.37 28.9702 62.4207 29.0424 62.5425 29.0732C62.5627 29.0938 62.8873 29.1144 63.5365 29.135C63.9828 29.135 64.1856 29.2071 64.1856 29.3307Z" fill="#1E1D1C"/>
<path d="M75.3632 26.5194C75.3632 26.7049 75.2313 27.0344 74.9473 27.4876C74.6735 27.9716 74.3793 28.3423 74.0953 28.641C73.3142 29.4444 72.2696 29.8563 70.9813 29.8563C69.3483 29.8563 67.979 29.2589 66.8937 28.0643C65.7983 26.8696 65.2505 25.3865 65.2505 23.6254C65.2505 21.7819 65.7678 20.2473 66.8025 19.0218C67.8472 17.7962 69.1455 17.1885 70.6974 17.1885C71.9855 17.1885 73.0607 17.5491 73.9229 18.3318C74.7952 19.0938 75.2618 20.0826 75.3023 21.2669C74.7343 21.3699 73.9634 21.4009 72.9999 21.3906H71.1133C70.9813 21.3906 69.896 21.4215 67.8472 21.4729C67.7559 22.0703 67.7153 22.6573 67.7153 23.1929C67.7153 25.0467 68.0704 26.468 68.76 27.4669C69.4599 28.4659 70.4438 28.9603 71.7116 28.9603C72.4318 28.9603 73.01 28.8058 73.4461 28.4659C73.8924 28.1363 74.359 27.4876 74.856 26.5606C74.9473 26.4164 75.0284 26.3443 75.1603 26.3443C75.3023 26.3237 75.3632 26.3856 75.3632 26.5194ZM72.9999 20.8962C72.9289 18.682 72.1681 17.5902 70.667 17.5902C69.2063 17.5902 68.2935 18.6922 67.9283 20.8962H72.9999Z" fill="#1E1D1C"/>
<path d="M77.1989 18.3104C76.8135 18.3104 76.4787 18.1766 76.2049 17.8985C75.931 17.6307 75.7891 17.3011 75.7891 16.8995C75.7891 16.4978 75.931 16.1579 76.2049 15.8902C76.4787 15.6224 76.8135 15.4885 77.1989 15.4885C77.5844 15.4885 77.909 15.6224 78.1829 15.8799C78.4567 16.1477 78.5987 16.4875 78.5987 16.8892C78.5987 17.2908 78.4668 17.6307 78.1829 17.8882C77.909 18.1766 77.5844 18.3104 77.1989 18.3104ZM76.073 16.8995C76.073 17.2394 76.1745 17.5071 76.3977 17.7337C76.6107 17.9603 76.8845 18.0736 77.1989 18.0736C77.5134 18.0736 77.7771 17.9603 78.0002 17.7337C78.2133 17.5071 78.3249 17.2291 78.3249 16.8995C78.3249 16.5597 78.2133 16.2815 78.0002 16.0652C77.7771 15.8387 77.5134 15.7254 77.1989 15.7254C76.8744 15.7254 76.6107 15.8284 76.3977 16.0652C76.1745 16.2815 76.073 16.5597 76.073 16.8995ZM76.915 17.0025V17.7028H76.6715V16.0859H77.2801C77.6554 16.0859 77.8481 16.2404 77.8481 16.5494C77.8481 16.8171 77.7061 16.9613 77.4323 17.0025L77.8886 17.7131H77.625L77.1989 17.0128H76.915V17.0025ZM76.915 16.7965H77.1989C77.3207 16.7965 77.4119 16.7759 77.4728 16.7553C77.5539 16.7141 77.5844 16.642 77.5844 16.5287C77.5844 16.3742 77.4728 16.2918 77.2395 16.2918H76.915V16.7965Z" fill="#1E1D1C"/>
<path d="M99.9094 19.8452C100.204 20.1541 103.582 28.6404 103.835 29.8146L102.09 29.9896C101.309 29.2069 98.378 22.6567 98.2258 22.5434C97.1609 23.594 95.4264 29.4541 95.1525 29.9999L93.3369 29.8866C93.4181 28.9185 94.2701 23.4807 95.9335 20.2777C96.2379 19.2169 96.1871 14.8604 96.7551 14.3969C96.3494 14.2425 93.8644 13.6555 93.1138 13.1405C93.3471 12.574 94.5237 9.40198 94.828 8.94882C94.828 8.94882 95.5278 9.25779 95.9539 9.37108C95.9539 9.37108 95.7611 11.1631 95.8625 11.6163C97.8811 10.7717 100.427 10.9983 100.782 10.9056C100.782 10.9056 100.599 10.1538 100.376 9.98902L100.64 9.51526C100.335 9.27839 93.8542 8.1352 93.4891 8.03221C93.5297 7.70264 96.2784 3.16079 96.4102 3.0578C96.745 3.26378 100.498 9.01061 100.813 9.06211C101.096 8.83553 101.978 7.56875 101.978 7.56875C102.263 7.43487 103.237 8.23819 103.429 8.41327C103.764 8.74283 101.989 10.607 101.868 11.1425C101.939 11.4412 103.764 10.71 104.494 11.2867C104.565 11.3587 104.737 11.3794 104.606 11.7604C104.139 13.8202 100.417 19.3405 99.9094 19.8452Z" fill="white"/>
<path d="M91.5618 5.11836L91.7747 4.50043L94.3613 5.90109" fill="white"/>
<path d="M94.6252 5.35477L91.6025 2.46075L91.3083 2.87272" fill="white"/>
<path d="M94.9596 4.53085L93.6816 2.46075L93.3265 2.76973L94.9596 4.53085Z" fill="white"/>
</svg>
