<svg width="118" height="14" viewBox="0 0 118 14" fill="none" xmlns="http://www.w3.org/2000/svg">
<rect width="21.156" height="13.1771" rx="2.39583" fill="#82D475"/>
<rect x="24.156" width="21.156" height="13.1771" rx="2.39583" fill="#82D475"/>
<rect x="48.312" width="21.156" height="13.1771" rx="2.39583" fill="#82D475"/>
<rect x="72.468" width="21.156" height="13.1771" rx="2.39583" fill="#EDEDEF"/>
<rect x="72.468" width="21.156" height="13.1771" rx="2.39583" fill="#EDEDEF"/>
<rect x="72.468" width="21.156" height="13.1771" rx="2.39583" fill="#EDEDEF"/>
<path d="M72 2.39583C72 1.07265 73.0727 0 74.3958 0H86V13H74.3958C73.0727 13 72 11.9273 72 10.6042V2.39583Z" fill="#EDEDEF"/>
<path d="M72 2.39583C72 1.07265 73.0727 0 74.3958 0H86V13H74.3958C73.0727 13 72 11.9273 72 10.6042V2.39583Z" fill="#EDEDEF"/>
<path d="M72 2.39583C72 1.07265 73.0727 0 74.3958 0H86V13H74.3958C73.0727 13 72 11.9273 72 10.6042V2.39583Z" fill="#82D475"/>
<rect x="96.624" width="21.156" height="13.1771" rx="2.39583" fill="#EDEDEF"/>
</svg>
